# xmcd
#
# Track frame offsets: 
#        150
#        12825
#        24675
#        41850
#        57150
#        73425
#        92100
#        109725
#        124575
#        141075
#        159075
#        172125
#        187125
#        202800
#        221850
#        235875
#        249075
#        262650
#
# Disc length: 3696 seconds
#
# Revision: 1
# Processed by: cddbd v1.5.2PL0 Copyright (c) Steve Scherf et al.
# Submitted via: ExactAudioCopyFreeDBPlugin 1.0
#
DISCID=000e6e12
DTITLE=Various Artist - The Young Ones CD2
DYEAR=2015
DGENRE=Pop
TTITLE0=David Gates - Goodbye Girl
TTITLE1=England Dan and John Ford Coley - I'd Really Love to See You Ton
TTITLE1=ight
TTITLE2=Chicago - Hard to Say I'm Sorry
TTITLE3=Maureen McGovern - Can You Read My Mind
TTITLE4=Linda Ronstadt - Desperado
TTITLE5=Randy Crawford - Almaz
TTITLE6=Christopher Cross - Arthur's Theme (Best that You Can Do)
TTITLE7=Shirley Bassey - (Where Do I Begin) Love Story
TTITLE8=Debby Boone - You Light Up My Life
TTITLE9=Rose Royce - Wishing on a Star
TTITLE10=Percy Sledge - When a Man Loves a Woman
TTITLE11=George Benson - This Masquerade
TTITLE12=Bette Midler - The Rose
TTITLE13=Maureen McGovern - Very Special Love
TTITLE14=The Doobie Brothers - You Belong to Me
TTITLE15=Dionne Warwick - Walk On By
TTITLE16=Ben E. King - Stand by Me
TTITLE17=Sonny and Cher - I Got You Babe
EXTD=
EXTT0=
EXTT1=
EXTT2=
EXTT3=
EXTT4=
EXTT5=
EXTT6=
EXTT7=
EXTT8=
EXTT9=
EXTT10=
EXTT11=
EXTT12=
EXTT13=
EXTT14=
EXTT15=
EXTT16=
EXTT17=
PLAYORDER=
